<?xml version="1.0" encoding="iso-8859-1"?>
<!-- Generator: Adobe Illustrator 19.0.0, SVG Export Plug-In . SVG Version: 6.00 Build 0)  -->
<svg version="1.1" id="Capa_1" xmlns="http://www.w3.org/2000/svg" xmlns:xlink="http://www.w3.org/1999/xlink" x="0px" y="0px"
	 viewBox="0 0 512 512" style="enable-background:new 0 0 512 512;" xml:space="preserve">
<g>
	<g>
		<path d="M352.24,464h-0.088c-4.416,0-7.952,3.576-7.952,8s3.616,8,8.04,8c4.416,0,8-3.576,8-8S356.656,464,352.24,464z"/>
	</g>
</g>
<g>
	<g>
		<path d="M384.24,464h-0.088c-4.416,0-7.952,3.576-7.952,8s3.616,8,8.04,8c4.416,0,8-3.576,8-8S388.656,464,384.24,464z"/>
	</g>
</g>
<g>
	<g>
		<path d="M416.24,464h-0.088c-4.416,0-7.952,3.576-7.952,8s3.616,8,8.04,8c4.416,0,8-3.576,8-8S420.656,464,416.24,464z"/>
	</g>
</g>
<g>
	<g>
		<path d="M96.24,464h-0.088c-4.416,0-7.952,3.576-7.952,8s3.616,8,8.04,8c4.416,0,8-3.576,8-8S100.656,464,96.24,464z"/>
	</g>
</g>
<g>
	<g>
		<path d="M128.24,464h-0.088c-4.416,0-7.952,3.576-7.952,8s3.616,8,8.04,8c4.416,0,8-3.576,8-8S132.656,464,128.24,464z"/>
	</g>
</g>
<g>
	<g>
		<path d="M160.24,464h-0.088c-4.416,0-7.952,3.576-7.952,8s3.616,8,8.04,8c4.416,0,8-3.576,8-8S164.656,464,160.24,464z"/>
	</g>
</g>
<g>
	<g>
		<path d="M456,0H56C25.128,0,0,25.128,0,56v400c0,30.872,25.128,56,56,56h400c30.872,0,56-25.128,56-56V56
			C512,25.128,486.872,0,456,0z M496,456c0,22.056-17.944,40-40,40H56c-22.056,0-40-17.944-40-40V56c0-22.056,17.944-40,40-40h400
			c22.056,0,40,17.944,40,40V456z"/>
	</g>
</g>
<g>
	<g>
		<path d="M448,400H64c-4.424,0-8,3.576-8,8s3.576,8,8,8h384c4.424,0,8-3.576,8-8S452.424,400,448,400z"/>
	</g>
</g>
<g>
	<g>
		<path d="M304,256H152c-4.424,0-8,3.576-8,8v144c0,4.424,3.576,8,8,8s8-3.576,8-8V272h136v136c0,4.424,3.576,8,8,8s8-3.576,8-8V264
			C312,259.576,308.424,256,304,256z"/>
	</g>
</g>
<g>
	<g>
		<path d="M360,256H200c-4.424,0-8,3.576-8,8s3.576,8,8,8h152v136c0,4.424,3.576,8,8,8s8-3.576,8-8V264
			C368,259.576,364.424,256,360,256z"/>
	</g>
</g>
<g>
	<g>
		<path d="M224,104H64c-4.424,0-8,3.576-8,8s3.576,8,8,8h160c4.424,0,8-3.576,8-8S228.424,104,224,104z"/>
	</g>
</g>
<g>
	<g>
		<path d="M224,152H64c-4.424,0-8,3.576-8,8s3.576,8,8,8h160c4.424,0,8-3.576,8-8S228.424,152,224,152z"/>
	</g>
</g>
<g>
	<g>
		<path d="M448,104H288c-4.424,0-8,3.576-8,8s3.576,8,8,8h160c4.424,0,8-3.576,8-8S452.424,104,448,104z"/>
	</g>
</g>
<g>
	<g>
		<path d="M448,152H288c-4.424,0-8,3.576-8,8s3.576,8,8,8h160c4.424,0,8-3.576,8-8S452.424,152,448,152z"/>
	</g>
</g>
<g>
	<g>
		<path d="M288,80h-64c-4.424,0-8,3.576-8,8v96c0,4.424,3.576,8,8,8h64c4.424,0,8-3.576,8-8V88C296,83.576,292.424,80,288,80z
			 M280,176h-48V96h48V176z"/>
	</g>
</g>
<g>
	<g>
		<path d="M240,176c-4.424,0-8,3.576-8,8v32c0,4.424,3.576,8,8,8s8-3.576,8-8v-32C248,179.576,244.424,176,240,176z"/>
	</g>
</g>
<g>
	<g>
		<path d="M272,208h-32c-4.424,0-8,3.576-8,8s3.576,8,8,8h32c4.424,0,8-3.576,8-8S276.424,208,272,208z"/>
	</g>
</g>
<g>
	<g>
		<path d="M272,176c-4.424,0-8,3.576-8,8v32c0,4.424,3.576,8,8,8s8-3.576,8-8v-32C280,179.576,276.424,176,272,176z"/>
	</g>
</g>
<g>
	<g>
		<path d="M256,208c-4.424,0-8,3.576-8,8v16c0,4.424,3.576,8,8,8s8-3.576,8-8v-16C264,211.576,260.424,208,256,208z"/>
	</g>
</g>
<g>
	<g>
		<path d="M448,56H64c-4.424,0-8,3.576-8,8v376c0,4.424,3.576,8,8,8h384c4.424,0,8-3.576,8-8V64C456,59.576,452.424,56,448,56z
			 M440,432H72V72h368V432z"/>
	</g>
</g>
<g>
	<g>
		<path d="M312,464H200c-4.424,0-8,3.576-8,8s3.576,8,8,8h112c4.424,0,8-3.576,8-8S316.424,464,312,464z"/>
	</g>
</g>
<g>
</g>
<g>
</g>
<g>
</g>
<g>
</g>
<g>
</g>
<g>
</g>
<g>
</g>
<g>
</g>
<g>
</g>
<g>
</g>
<g>
</g>
<g>
</g>
<g>
</g>
<g>
</g>
<g>
</g>
</svg>
