<svg height="512pt" viewBox="-16 -16 512 512" width="512pt" xmlns="http://www.w3.org/2000/svg"><path d="m80 160h80v40h-80zm0 0"/><path d="m300 200h100v-40h-60v-80h-40v80h-100v40zm0 0"/><path d="m160 0h-160v480h480v-480zm140 320c-11.03125 0-20-8.96875-20-20s8.96875-20 20-20 20 8.96875 20 20-8.96875 20-20 20zm140-280v400h-120v-83.5c17-6.039062 30.460938-19.5 36.5-36.5h43.5v-40h-43.5c-8.257812-23.273438-30.429688-40-56.5-40s-48.242188 16.726562-56.5 40h-163.5v40h60v80h40v-80h63.5c6.039062 17 19.5 30.460938 36.5 36.5v83.5h-240v-400h120v40h-80v40h80v40h40v-120zm0 0"/></svg>